<?xml version="1.0" encoding="UTF-8" standalone="no"?><svg xmlns="http://www.w3.org/2000/svg" xmlns:xlink="http://www.w3.org/1999/xlink" clip-rule="evenodd" stroke-miterlimit="4.00" viewBox="0 0 1920 1080"><desc>SVG generated by Keynote</desc><defs></defs><g transform="matrix(1.00, 0.00, -0.00, -1.00, 0.0, 1080.0)"><path d="M 0.0 1080.0 L 1920.0 1080.0 L 1920.0 0.0 L 0.0 0.0 Z M 0.0 1080.0 " fill="#FEFFFF"></path><g><clipPath id="clip-69"><path d="M 539.0 886.0 L 1381.0 886.0 L 1381.0 480.0 L 539.0 480.0 Z M 538.8 885.9 "></path></clipPath><g clip-path="url(#clip-69)"><image xlink:href="385D68AF1BA2DF7F0E67EC27DF8D9244.jpeg" width="450.00" height="280.00" transform="matrix(1.87, 0.00, -0.00, -1.87, 539.0, 945.0)"></image></g></g><text xml:space="preserve" font-family="Helvetica-Light" font-size="112.0" fill="#000000" transform="matrix(1.00, 0.00, -0.00, -1.00, 352.0, 208.0)">H</text><text xml:space="preserve" font-family="Helvetica-Light" font-size="112.0" fill="#000000" transform="matrix(1.00, 0.00, -0.00, -1.00, 432.9, 208.0)">e</text><text xml:space="preserve" font-family="Helvetica-Light" font-size="112.0" fill="#000000" transform="matrix(1.00, 0.00, -0.00, -1.00, 495.1, 208.0)">y</text><text xml:space="preserve" font-family="Helvetica-Light" font-size="112.0" fill="#000000" transform="matrix(1.00, 0.00, -0.00, -1.00, 540.8, 208.0)">,</text><text xml:space="preserve" font-family="Helvetica-Light" font-size="112.0" fill="#000000" transform="matrix(1.00, 0.00, -0.00, -1.00, 572.0, 208.0)"> </text><text xml:space="preserve" font-family="Helvetica-Light" font-size="112.0" fill="#000000" transform="matrix(1.00, 0.00, -0.00, -1.00, 603.1, 208.0)">t</text><text xml:space="preserve" font-family="Helvetica-Light" font-size="112.0" fill="#000000" transform="matrix(1.00, 0.00, -0.00, -1.00, 634.2, 208.0)">h</text><text xml:space="preserve" font-family="Helvetica-Light" font-size="112.0" fill="#000000" transform="matrix(1.00, 0.00, -0.00, -1.00, 696.5, 208.0)">i</text><text xml:space="preserve" font-family="Helvetica-Light" font-size="112.0" fill="#000000" transform="matrix(1.00, 0.00, -0.00, -1.00, 721.4, 208.0)">s</text><text xml:space="preserve" font-family="Helvetica-Light" font-size="112.0" fill="#000000" transform="matrix(1.00, 0.00, -0.00, -1.00, 777.4, 208.0)"> </text><text xml:space="preserve" font-family="Helvetica-Light" font-size="112.0" fill="#000000" transform="matrix(1.00, 0.00, -0.00, -1.00, 808.5, 208.0)">o</text><text xml:space="preserve" font-family="Helvetica-Light" font-size="112.0" fill="#000000" transform="matrix(1.00, 0.00, -0.00, -1.00, 870.8, 208.0)">n</text><text xml:space="preserve" font-family="Helvetica-Light" font-size="112.0" fill="#000000" transform="matrix(1.00, 0.00, -0.00, -1.00, 933.1, 208.0)">e</text><text xml:space="preserve" font-family="Helvetica-Light" font-size="112.0" fill="#000000" transform="matrix(1.00, 0.00, -0.00, -1.00, 995.3, 208.0)"> </text><text xml:space="preserve" font-family="Helvetica-Light" font-size="112.0" fill="#000000" transform="matrix(1.00, 0.00, -0.00, -1.00, 1026.5, 208.0)">l</text><text xml:space="preserve" font-family="Helvetica-Light" font-size="112.0" fill="#000000" transform="matrix(1.00, 0.00, -0.00, -1.00, 1051.3, 208.0)">o</text><text xml:space="preserve" font-family="Helvetica-Light" font-size="112.0" fill="#000000" transform="matrix(1.00, 0.00, -0.00, -1.00, 1113.6, 208.0)">o</text><text xml:space="preserve" font-family="Helvetica-Light" font-size="112.0" fill="#000000" transform="matrix(1.00, 0.00, -0.00, -1.00, 1175.9, 208.0)">k</text><text xml:space="preserve" font-family="Helvetica-Light" font-size="112.0" fill="#000000" transform="matrix(1.00, 0.00, -0.00, -1.00, 1231.9, 208.0)">s</text><text xml:space="preserve" font-family="Helvetica-Light" font-size="112.0" fill="#000000" transform="matrix(1.00, 0.00, -0.00, -1.00, 1287.9, 208.0)"> </text><text xml:space="preserve" font-family="Helvetica-Light" font-size="112.0" fill="#000000" transform="matrix(1.00, 0.00, -0.00, -1.00, 1319.0, 208.0)">c</text><text xml:space="preserve" font-family="Helvetica-Light" font-size="112.0" fill="#000000" transform="matrix(1.00, 0.00, -0.00, -1.00, 1381.3, 208.0)">o</text><text xml:space="preserve" font-family="Helvetica-Light" font-size="112.0" fill="#000000" transform="matrix(1.00, 0.00, -0.00, -1.00, 1443.6, 208.0)">o</text><text xml:space="preserve" font-family="Helvetica-Light" font-size="112.0" fill="#000000" transform="matrix(1.00, 0.00, -0.00, -1.00, 1505.8, 208.0)">l</text><text xml:space="preserve" font-family="Helvetica-Light" font-size="112.0" fill="#000000" transform="matrix(1.00, 0.00, -0.00, -1.00, 1530.7, 208.0)">!</text><image xlink:href="96FA8A0CD52B77FA6EB54FD935DBF816.png" width="776.00" height="530.00" transform="matrix(1.36, 0.00, -0.00, -1.36, 433.0, 1056.0)"></image><g><clipPath id="clip-70"><path d="M 41.6 24.3 L 101.5 24.3 L 101.5 73.0 L 41.6 73.0 Z M 41.6 24.3 "></path></clipPath><g clip-path="url(#clip-70)"><image xlink:href="../../615F7CD4-E262-41F7-8138-806EC6AB1FAB/assets/433D572A4C5F328FFCF94BCF9FBA99DF.png" width="60.00" height="48.00" transform="matrix(1.00, 0.00, -0.00, -1.02, 42.0, 73.0)"></image></g></g><g><clipPath id="clip-71"><path d="M 95.4 3.4 L 433.0 3.4 L 433.0 93.9 L 95.4 93.9 Z M 95.4 3.4 "></path></clipPath><g clip-path="url(#clip-71)"><text xml:space="preserve" font-family="Helvetica-Light" font-size="53.0" fill="#000000" transform="matrix(1.00, 0.00, -0.00, -1.00, 109.0, 29.0)">T</text><text xml:space="preserve" font-family="Helvetica-Light" font-size="53.0" fill="#000000" transform="matrix(1.00, 0.00, -0.00, -1.00, 138.5, 29.0)">i</text><text xml:space="preserve" font-family="Helvetica-Light" font-size="53.0" fill="#000000" transform="matrix(1.00, 0.00, -0.00, -1.00, 150.2, 29.0)">m</text><text xml:space="preserve" font-family="Helvetica-Light" font-size="53.0" fill="#000000" transform="matrix(1.00, 0.00, -0.00, -1.00, 194.4, 29.0)">C</text><text xml:space="preserve" font-family="Helvetica-Light" font-size="53.0" fill="#000000" transform="matrix(1.00, 0.00, -0.00, -1.00, 232.6, 29.0)">D</text><text xml:space="preserve" font-family="Helvetica-Light" font-size="53.0" fill="#000000" transform="matrix(1.00, 0.00, -0.00, -1.00, 270.9, 29.0)">o</text><text xml:space="preserve" font-family="Helvetica-Light" font-size="53.0" fill="#000000" transform="matrix(1.00, 0.00, -0.00, -1.00, 300.4, 29.0)">h</text><text xml:space="preserve" font-family="Helvetica-Light" font-size="53.0" fill="#000000" transform="matrix(1.00, 0.00, -0.00, -1.00, 329.9, 29.0)">e</text><text xml:space="preserve" font-family="Helvetica-Light" font-size="53.0" fill="#000000" transform="matrix(1.00, 0.00, -0.00, -1.00, 359.3, 29.0)">r</text><text xml:space="preserve" font-family="Helvetica-Light" font-size="53.0" fill="#000000" transform="matrix(1.00, 0.00, -0.00, -1.00, 377.9, 29.0)">t</text><text xml:space="preserve" font-family="Helvetica-Light" font-size="53.0" fill="#000000" transform="matrix(1.00, 0.00, -0.00, -1.00, 392.7, 29.0)">y</text></g></g></g></svg>