<?xml version="1.0" encoding="UTF-8" standalone="no"?><svg xmlns="http://www.w3.org/2000/svg" xmlns:xlink="http://www.w3.org/1999/xlink" clip-rule="evenodd" stroke-miterlimit="4.00" viewBox="0 0 1920 1080"><desc>SVG generated by Keynote</desc><defs></defs><g transform="matrix(1.00, 0.00, -0.00, -1.00, 0.0, 1080.0)"><path d="M 0.0 1080.0 L 1920.0 1080.0 L 1920.0 0.0 L 0.0 0.0 Z M 0.0 1080.0 " fill="#FEFFFF"></path><g><clipPath id="clip-206"><path d="M 125.8 955.0 L 302.8 955.0 L 302.8 1001.0 L 125.8 1001.0 Z M 125.8 955.0 "></path></clipPath><g clip-path="url(#clip-206)"><text xml:space="preserve" font-family="Helvetica-Light" font-size="44.8" fill="#000000" transform="matrix(1.00, 0.00, -0.00, -1.00, 137.0, 958.0)">L</text><text xml:space="preserve" font-family="Helvetica-Light" font-size="44.8" fill="#000000" transform="matrix(1.00, 0.00, -0.00, -1.00, 161.9, 958.0)">o</text><text xml:space="preserve" font-family="Helvetica-Light" font-size="44.8" fill="#000000" transform="matrix(1.00, 0.00, -0.00, -1.00, 186.8, 958.0)">d</text><text xml:space="preserve" font-family="Helvetica-Light" font-size="44.8" fill="#000000" transform="matrix(1.00, 0.00, -0.00, -1.00, 214.2, 958.0)">a</text><text xml:space="preserve" font-family="Helvetica-Light" font-size="44.8" fill="#000000" transform="matrix(1.00, 0.00, -0.00, -1.00, 239.1, 958.0)">s</text><text xml:space="preserve" font-family="Helvetica-Light" font-size="44.8" fill="#000000" transform="matrix(1.00, 0.00, -0.00, -1.00, 261.5, 958.0)">h</text></g></g><image xlink:href="../../7A99BF30-3A15-4F1E-9350-E9F09E3A4ACB/assets/2970647BE1379B3707C4355385876096.png" width="960.00" height="461.00" transform="matrix(1.01, 0.00, -0.00, -1.01, 356.0, 934.0)"></image><g><clipPath id="clip-207"><path d="M 41.6 24.3 L 101.5 24.3 L 101.5 73.0 L 41.6 73.0 Z M 41.6 24.3 "></path></clipPath><g clip-path="url(#clip-207)"><image xlink:href="../../615F7CD4-E262-41F7-8138-806EC6AB1FAB/assets/433D572A4C5F328FFCF94BCF9FBA99DF.png" width="60.00" height="48.00" transform="matrix(1.00, 0.00, -0.00, -1.02, 42.0, 73.0)"></image></g></g><g><clipPath id="clip-208"><path d="M 95.4 3.4 L 433.0 3.4 L 433.0 93.9 L 95.4 93.9 Z M 95.4 3.4 "></path></clipPath><g clip-path="url(#clip-208)"><text xml:space="preserve" font-family="Helvetica-Light" font-size="53.0" fill="#000000" transform="matrix(1.00, 0.00, -0.00, -1.00, 109.0, 29.0)">T</text><text xml:space="preserve" font-family="Helvetica-Light" font-size="53.0" fill="#000000" transform="matrix(1.00, 0.00, -0.00, -1.00, 138.5, 29.0)">i</text><text xml:space="preserve" font-family="Helvetica-Light" font-size="53.0" fill="#000000" transform="matrix(1.00, 0.00, -0.00, -1.00, 150.2, 29.0)">m</text><text xml:space="preserve" font-family="Helvetica-Light" font-size="53.0" fill="#000000" transform="matrix(1.00, 0.00, -0.00, -1.00, 194.4, 29.0)">C</text><text xml:space="preserve" font-family="Helvetica-Light" font-size="53.0" fill="#000000" transform="matrix(1.00, 0.00, -0.00, -1.00, 232.6, 29.0)">D</text><text xml:space="preserve" font-family="Helvetica-Light" font-size="53.0" fill="#000000" transform="matrix(1.00, 0.00, -0.00, -1.00, 270.9, 29.0)">o</text><text xml:space="preserve" font-family="Helvetica-Light" font-size="53.0" fill="#000000" transform="matrix(1.00, 0.00, -0.00, -1.00, 300.4, 29.0)">h</text><text xml:space="preserve" font-family="Helvetica-Light" font-size="53.0" fill="#000000" transform="matrix(1.00, 0.00, -0.00, -1.00, 329.9, 29.0)">e</text><text xml:space="preserve" font-family="Helvetica-Light" font-size="53.0" fill="#000000" transform="matrix(1.00, 0.00, -0.00, -1.00, 359.3, 29.0)">r</text><text xml:space="preserve" font-family="Helvetica-Light" font-size="53.0" fill="#000000" transform="matrix(1.00, 0.00, -0.00, -1.00, 377.9, 29.0)">t</text><text xml:space="preserve" font-family="Helvetica-Light" font-size="53.0" fill="#000000" transform="matrix(1.00, 0.00, -0.00, -1.00, 392.7, 29.0)">y</text></g></g></g></svg>