<?xml version="1.0" encoding="UTF-8" standalone="no"?><svg xmlns="http://www.w3.org/2000/svg" xmlns:xlink="http://www.w3.org/1999/xlink" clip-rule="evenodd" stroke-miterlimit="4.00" viewBox="0 0 1793 81"><desc>SVG generated by Keynote</desc><defs></defs><g transform="matrix(1.00, 0.00, -0.00, -1.00, 0.0, 81.0)"><text xml:space="preserve" font-family="Helvetica-Light" font-size="81.8" fill="#000000" transform="matrix(1.00, 0.00, -0.00, -1.00, -5.0, 19.0)">R</text><text xml:space="preserve" font-family="Helvetica-Light" font-size="81.8" fill="#000000" transform="matrix(1.00, 0.00, -0.00, -1.00, 49.5, 19.0)">e</text><text xml:space="preserve" font-family="Helvetica-Light" font-size="81.8" fill="#000000" transform="matrix(1.00, 0.00, -0.00, -1.00, 95.0, 19.0)">d</text><text xml:space="preserve" font-family="Helvetica-Light" font-size="81.8" fill="#000000" transform="matrix(1.00, 0.00, -0.00, -1.00, 144.9, 19.0)">u</text><text xml:space="preserve" font-family="Helvetica-Light" font-size="81.8" fill="#000000" transform="matrix(1.00, 0.00, -0.00, -1.00, 190.4, 19.0)">c</text><text xml:space="preserve" font-family="Helvetica-Light" font-size="81.8" fill="#000000" transform="matrix(1.00, 0.00, -0.00, -1.00, 235.9, 19.0)">e</text><text xml:space="preserve" font-family="Helvetica-Light" font-size="81.8" fill="#000000" transform="matrix(1.00, 0.00, -0.00, -1.00, 281.3, 19.0)">d</text><text xml:space="preserve" font-family="Helvetica-Light" font-size="81.8" fill="#000000" transform="matrix(1.00, 0.00, -0.00, -1.00, 331.3, 19.0)"> </text><text xml:space="preserve" font-family="Helvetica-Light" font-size="81.8" fill="#000000" transform="matrix(1.00, 0.00, -0.00, -1.00, 354.0, 19.0)">C</text><text xml:space="preserve" font-family="Helvetica-Light" font-size="81.8" fill="#000000" transform="matrix(1.00, 0.00, -0.00, -1.00, 413.0, 19.0)">a</text><text xml:space="preserve" font-family="Helvetica-Light" font-size="81.8" fill="#000000" transform="matrix(1.00, 0.00, -0.00, -1.00, 458.5, 19.0)">p</text><text xml:space="preserve" font-family="Helvetica-Light" font-size="81.8" fill="#000000" transform="matrix(1.00, 0.00, -0.00, -1.00, 508.5, 19.0)">a</text><text xml:space="preserve" font-family="Helvetica-Light" font-size="81.8" fill="#000000" transform="matrix(1.00, 0.00, -0.00, -1.00, 553.9, 19.0)">c</text><text xml:space="preserve" font-family="Helvetica-Light" font-size="81.8" fill="#000000" transform="matrix(1.00, 0.00, -0.00, -1.00, 599.4, 19.0)">i</text><text xml:space="preserve" font-family="Helvetica-Light" font-size="81.8" fill="#000000" transform="matrix(1.00, 0.00, -0.00, -1.00, 617.5, 19.0)">t</text><text xml:space="preserve" font-family="Helvetica-Light" font-size="81.8" fill="#000000" transform="matrix(1.00, 0.00, -0.00, -1.00, 640.2, 19.0)">y</text><text xml:space="preserve" font-family="Helvetica-Light" font-size="81.8" fill="#000000" transform="matrix(1.00, 0.00, -0.00, -1.00, 681.1, 19.0)"> </text><text xml:space="preserve" font-family="Helvetica-Light" font-size="81.8" fill="#000000" transform="matrix(1.00, 0.00, -0.00, -1.00, 703.9, 19.0)">f</text><text xml:space="preserve" font-family="Helvetica-Light" font-size="81.8" fill="#000000" transform="matrix(1.00, 0.00, -0.00, -1.00, 726.6, 19.0)">o</text><text xml:space="preserve" font-family="Helvetica-Light" font-size="81.8" fill="#000000" transform="matrix(1.00, 0.00, -0.00, -1.00, 772.0, 19.0)">r</text><text xml:space="preserve" font-family="Helvetica-Light" font-size="81.8" fill="#000000" transform="matrix(1.00, 0.00, -0.00, -1.00, 799.3, 19.0)"> </text><text xml:space="preserve" font-family="Helvetica-Light" font-size="81.8" fill="#000000" transform="matrix(1.00, 0.00, -0.00, -1.00, 822.0, 19.0)">H</text><text xml:space="preserve" font-family="Helvetica-Light" font-size="81.8" fill="#000000" transform="matrix(1.00, 0.00, -0.00, -1.00, 881.0, 19.0)">y</text><text xml:space="preserve" font-family="Helvetica-Light" font-size="81.8" fill="#000000" transform="matrix(1.00, 0.00, -0.00, -1.00, 921.9, 19.0)">p</text><text xml:space="preserve" font-family="Helvetica-Light" font-size="81.8" fill="#000000" transform="matrix(1.00, 0.00, -0.00, -1.00, 971.9, 19.0)">e</text><text xml:space="preserve" font-family="Helvetica-Light" font-size="81.8" fill="#000000" transform="matrix(1.00, 0.00, -0.00, -1.00, 1017.3, 19.0)"> </text><text xml:space="preserve" font-family="Helvetica-Light" font-size="81.8" fill="#000000" transform="matrix(1.00, 0.00, -0.00, -1.00, 1040.1, 19.0)">a</text><text xml:space="preserve" font-family="Helvetica-Light" font-size="81.8" fill="#000000" transform="matrix(1.00, 0.00, -0.00, -1.00, 1085.5, 19.0)">n</text><text xml:space="preserve" font-family="Helvetica-Light" font-size="81.8" fill="#000000" transform="matrix(1.00, 0.00, -0.00, -1.00, 1131.0, 19.0)">d</text><text xml:space="preserve" font-family="Helvetica-Light" font-size="81.8" fill="#000000" transform="matrix(1.00, 0.00, -0.00, -1.00, 1180.9, 19.0)"> </text><text xml:space="preserve" font-family="Helvetica-Light" font-size="81.8" fill="#000000" transform="matrix(1.00, 0.00, -0.00, -1.00, 1203.7, 19.0)">M</text><text xml:space="preserve" font-family="Helvetica-Light" font-size="81.8" fill="#000000" transform="matrix(1.00, 0.00, -0.00, -1.00, 1271.8, 19.0)">a</text><text xml:space="preserve" font-family="Helvetica-Light" font-size="81.8" fill="#000000" transform="matrix(1.00, 0.00, -0.00, -1.00, 1317.2, 19.0)">r</text><text xml:space="preserve" font-family="Helvetica-Light" font-size="81.8" fill="#000000" transform="matrix(1.00, 0.00, -0.00, -1.00, 1344.4, 19.0)">k</text><text xml:space="preserve" font-family="Helvetica-Light" font-size="81.8" fill="#000000" transform="matrix(1.00, 0.00, -0.00, -1.00, 1385.3, 19.0)">e</text><text xml:space="preserve" font-family="Helvetica-Light" font-size="81.8" fill="#000000" transform="matrix(1.00, 0.00, -0.00, -1.00, 1430.8, 19.0)">t</text><text xml:space="preserve" font-family="Helvetica-Light" font-size="81.8" fill="#000000" transform="matrix(1.00, 0.00, -0.00, -1.00, 1453.5, 19.0)">i</text><text xml:space="preserve" font-family="Helvetica-Light" font-size="81.8" fill="#000000" transform="matrix(1.00, 0.00, -0.00, -1.00, 1471.7, 19.0)">n</text><text xml:space="preserve" font-family="Helvetica-Light" font-size="81.8" fill="#000000" transform="matrix(1.00, 0.00, -0.00, -1.00, 1517.1, 19.0)">g</text><text xml:space="preserve" font-family="Helvetica-Light" font-size="81.8" fill="#000000" transform="matrix(1.00, 0.00, -0.00, -1.00, 1567.1, 19.0)"> </text><text xml:space="preserve" font-family="Helvetica-Light" font-size="81.8" fill="#000000" transform="matrix(1.00, 0.00, -0.00, -1.00, 1589.8, 19.0)">L</text><text xml:space="preserve" font-family="Helvetica-Light" font-size="81.8" fill="#000000" transform="matrix(1.00, 0.00, -0.00, -1.00, 1635.3, 19.0)">i</text><text xml:space="preserve" font-family="Helvetica-Light" font-size="81.8" fill="#000000" transform="matrix(1.00, 0.00, -0.00, -1.00, 1653.4, 19.0)">n</text><text xml:space="preserve" font-family="Helvetica-Light" font-size="81.8" fill="#000000" transform="matrix(1.00, 0.00, -0.00, -1.00, 1698.9, 19.0)">g</text><text xml:space="preserve" font-family="Helvetica-Light" font-size="81.8" fill="#000000" transform="matrix(1.00, 0.00, -0.00, -1.00, 1748.8, 19.0)">o</text></g></svg>