<?xml version="1.0" encoding="UTF-8" standalone="no"?><svg xmlns="http://www.w3.org/2000/svg" xmlns:xlink="http://www.w3.org/1999/xlink" clip-rule="evenodd" stroke-miterlimit="4.00" viewBox="0 0 1920 1080"><desc>SVG generated by Keynote</desc><defs></defs><g transform="matrix(1.00, 0.00, -0.00, -1.00, 0.0, 1080.0)"><path d="M 0.0 1080.0 L 1920.0 1080.0 L 1920.0 0.0 L 0.0 0.0 Z M 0.0 1080.0 " fill="#FEFFFF"></path><text xml:space="preserve" font-family="Helvetica-Light" font-size="112.0" fill="#000000" transform="matrix(1.00, 0.00, -0.00, -1.00, 266.0, 782.0)">T</text><text xml:space="preserve" font-family="Helvetica-Light" font-size="112.0" fill="#000000" transform="matrix(1.00, 0.00, -0.00, -1.00, 318.0, 782.0)">r</text><text xml:space="preserve" font-family="Helvetica-Light" font-size="112.0" fill="#000000" transform="matrix(1.00, 0.00, -0.00, -1.00, 353.2, 782.0)">e</text><text xml:space="preserve" font-family="Helvetica-Light" font-size="112.0" fill="#000000" transform="matrix(1.00, 0.00, -0.00, -1.00, 415.5, 782.0)">a</text><text xml:space="preserve" font-family="Helvetica-Light" font-size="112.0" fill="#000000" transform="matrix(1.00, 0.00, -0.00, -1.00, 477.8, 782.0)">t</text><text xml:space="preserve" font-family="Helvetica-Light" font-size="112.0" fill="#000000" transform="matrix(1.00, 0.00, -0.00, -1.00, 508.9, 782.0)">i</text><text xml:space="preserve" font-family="Helvetica-Light" font-size="112.0" fill="#000000" transform="matrix(1.00, 0.00, -0.00, -1.00, 533.8, 782.0)">n</text><text xml:space="preserve" font-family="Helvetica-Light" font-size="112.0" fill="#000000" transform="matrix(1.00, 0.00, -0.00, -1.00, 596.1, 782.0)">g</text><text xml:space="preserve" font-family="Helvetica-Light" font-size="112.0" fill="#000000" transform="matrix(1.00, 0.00, -0.00, -1.00, 664.5, 782.0)"> </text><text xml:space="preserve" font-family="Helvetica-Light" font-size="112.0" fill="#000000" transform="matrix(1.00, 0.00, -0.00, -1.00, 695.6, 782.0)">F</text><text xml:space="preserve" font-family="Helvetica-Light" font-size="112.0" fill="#000000" transform="matrix(1.00, 0.00, -0.00, -1.00, 757.9, 782.0)">r</text><text xml:space="preserve" font-family="Helvetica-Light" font-size="112.0" fill="#000000" transform="matrix(1.00, 0.00, -0.00, -1.00, 795.2, 782.0)">a</text><text xml:space="preserve" font-family="Helvetica-Light" font-size="112.0" fill="#000000" transform="matrix(1.00, 0.00, -0.00, -1.00, 857.5, 782.0)">m</text><text xml:space="preserve" font-family="Helvetica-Light" font-size="112.0" fill="#000000" transform="matrix(1.00, 0.00, -0.00, -1.00, 950.8, 782.0)">e</text><text xml:space="preserve" font-family="Helvetica-Light" font-size="112.0" fill="#000000" transform="matrix(1.00, 0.00, -0.00, -1.00, 1013.0, 782.0)">w</text><text xml:space="preserve" font-family="Helvetica-Light" font-size="112.0" fill="#000000" transform="matrix(1.00, 0.00, -0.00, -1.00, 1093.9, 782.0)">o</text><text xml:space="preserve" font-family="Helvetica-Light" font-size="112.0" fill="#000000" transform="matrix(1.00, 0.00, -0.00, -1.00, 1156.2, 782.0)">r</text><text xml:space="preserve" font-family="Helvetica-Light" font-size="112.0" fill="#000000" transform="matrix(1.00, 0.00, -0.00, -1.00, 1193.5, 782.0)">k</text><text xml:space="preserve" font-family="Helvetica-Light" font-size="112.0" fill="#000000" transform="matrix(1.00, 0.00, -0.00, -1.00, 1249.5, 782.0)"> </text><text xml:space="preserve" font-family="Helvetica-Light" font-size="112.0" fill="#000000" transform="matrix(1.00, 0.00, -0.00, -1.00, 1280.6, 782.0)">F</text><text xml:space="preserve" font-family="Helvetica-Light" font-size="112.0" fill="#000000" transform="matrix(1.00, 0.00, -0.00, -1.00, 1342.9, 782.0)">a</text><text xml:space="preserve" font-family="Helvetica-Light" font-size="112.0" fill="#000000" transform="matrix(1.00, 0.00, -0.00, -1.00, 1405.2, 782.0)">t</text><text xml:space="preserve" font-family="Helvetica-Light" font-size="112.0" fill="#000000" transform="matrix(1.00, 0.00, -0.00, -1.00, 1436.3, 782.0)">i</text><text xml:space="preserve" font-family="Helvetica-Light" font-size="112.0" fill="#000000" transform="matrix(1.00, 0.00, -0.00, -1.00, 1461.2, 782.0)">g</text><text xml:space="preserve" font-family="Helvetica-Light" font-size="112.0" fill="#000000" transform="matrix(1.00, 0.00, -0.00, -1.00, 1529.6, 782.0)">u</text><text xml:space="preserve" font-family="Helvetica-Light" font-size="112.0" fill="#000000" transform="matrix(1.00, 0.00, -0.00, -1.00, 1591.9, 782.0)">e</text><text xml:space="preserve" font-family="Helvetica-Light" font-size="112.0" fill="#000000" transform="matrix(1.00, 0.00, -0.00, -1.00, 1654.1, 782.0)"> </text><text xml:space="preserve" font-family="Helvetica-Light" font-size="112.0" fill="#000000" transform="matrix(1.00, 0.00, -0.00, -1.00, 571.0, 648.0)">W</text><text xml:space="preserve" font-family="Helvetica-Light" font-size="112.0" fill="#000000" transform="matrix(1.00, 0.00, -0.00, -1.00, 670.6, 648.0)">i</text><text xml:space="preserve" font-family="Helvetica-Light" font-size="112.0" fill="#000000" transform="matrix(1.00, 0.00, -0.00, -1.00, 695.4, 648.0)">t</text><text xml:space="preserve" font-family="Helvetica-Light" font-size="112.0" fill="#000000" transform="matrix(1.00, 0.00, -0.00, -1.00, 726.6, 648.0)">h</text><text xml:space="preserve" font-family="Helvetica-Light" font-size="112.0" fill="#000000" transform="matrix(1.00, 0.00, -0.00, -1.00, 788.8, 648.0)"> </text><text xml:space="preserve" font-family="Helvetica-Light" font-size="112.0" fill="#000000" transform="matrix(1.00, 0.00, -0.00, -1.00, 820.0, 648.0)">J</text><text xml:space="preserve" font-family="Helvetica-Light" font-size="112.0" fill="#000000" transform="matrix(1.00, 0.00, -0.00, -1.00, 876.0, 648.0)">a</text><text xml:space="preserve" font-family="Helvetica-Light" font-size="112.0" fill="#000000" transform="matrix(1.00, 0.00, -0.00, -1.00, 938.2, 648.0)">v</text><text xml:space="preserve" font-family="Helvetica-Light" font-size="112.0" fill="#000000" transform="matrix(1.00, 0.00, -0.00, -1.00, 994.2, 648.0)">a</text><text xml:space="preserve" font-family="Helvetica-Light" font-size="112.0" fill="#000000" transform="matrix(1.00, 0.00, -0.00, -1.00, 1056.5, 648.0)">S</text><text xml:space="preserve" font-family="Helvetica-Light" font-size="112.0" fill="#000000" transform="matrix(1.00, 0.00, -0.00, -1.00, 1125.0, 648.0)">c</text><text xml:space="preserve" font-family="Helvetica-Light" font-size="112.0" fill="#000000" transform="matrix(1.00, 0.00, -0.00, -1.00, 1187.2, 648.0)">r</text><text xml:space="preserve" font-family="Helvetica-Light" font-size="112.0" fill="#000000" transform="matrix(1.00, 0.00, -0.00, -1.00, 1224.5, 648.0)">i</text><text xml:space="preserve" font-family="Helvetica-Light" font-size="112.0" fill="#000000" transform="matrix(1.00, 0.00, -0.00, -1.00, 1249.4, 648.0)">p</text><text xml:space="preserve" font-family="Helvetica-Light" font-size="112.0" fill="#000000" transform="matrix(1.00, 0.00, -0.00, -1.00, 1317.8, 648.0)">t</text><text xml:space="preserve" font-family="Helvetica-Bold" font-weight="bold" font-size="54.0" fill="#000000" transform="matrix(1.00, 0.00, -0.00, -1.00, 62.0, 431.0)">T</text><text xml:space="preserve" font-family="Helvetica-Bold" font-weight="bold" font-size="54.0" fill="#000000" transform="matrix(1.00, 0.00, -0.00, -1.00, 94.0, 431.0)">i</text><text xml:space="preserve" font-family="Helvetica-Bold" font-weight="bold" font-size="54.0" fill="#000000" transform="matrix(1.00, 0.00, -0.00, -1.00, 109.0, 431.0)">m</text><text xml:space="preserve" font-family="Helvetica-Bold" font-weight="bold" font-size="54.0" fill="#000000" transform="matrix(1.00, 0.00, -0.00, -1.00, 157.0, 431.0)"> </text><text xml:space="preserve" font-family="Helvetica-Bold" font-weight="bold" font-size="54.0" fill="#000000" transform="matrix(1.00, 0.00, -0.00, -1.00, 172.0, 431.0)">D</text><text xml:space="preserve" font-family="Helvetica-Bold" font-weight="bold" font-size="54.0" fill="#000000" transform="matrix(1.00, 0.00, -0.00, -1.00, 211.0, 431.0)">o</text><text xml:space="preserve" font-family="Helvetica-Bold" font-weight="bold" font-size="54.0" fill="#000000" transform="matrix(1.00, 0.00, -0.00, -1.00, 244.0, 431.0)">h</text><text xml:space="preserve" font-family="Helvetica-Bold" font-weight="bold" font-size="54.0" fill="#000000" transform="matrix(1.00, 0.00, -0.00, -1.00, 277.0, 431.0)">e</text><text xml:space="preserve" font-family="Helvetica-Bold" font-weight="bold" font-size="54.0" fill="#000000" transform="matrix(1.00, 0.00, -0.00, -1.00, 307.0, 431.0)">r</text><text xml:space="preserve" font-family="Helvetica-Bold" font-weight="bold" font-size="54.0" fill="#000000" transform="matrix(1.00, 0.00, -0.00, -1.00, 328.1, 431.0)">t</text><text xml:space="preserve" font-family="Helvetica-Bold" font-weight="bold" font-size="54.0" fill="#000000" transform="matrix(1.00, 0.00, -0.00, -1.00, 346.0, 431.0)">y</text><text xml:space="preserve" font-family="Helvetica-Light" font-size="54.0" fill="#000000" transform="matrix(1.00, 0.00, -0.00, -1.00, 62.0, 366.0)">S</text><text xml:space="preserve" font-family="Helvetica-Light" font-size="54.0" fill="#000000" transform="matrix(1.00, 0.00, -0.00, -1.00, 95.0, 366.0)">o</text><text xml:space="preserve" font-family="Helvetica-Light" font-size="54.0" fill="#000000" transform="matrix(1.00, 0.00, -0.00, -1.00, 125.0, 366.0)">f</text><text xml:space="preserve" font-family="Helvetica-Light" font-size="54.0" fill="#000000" transform="matrix(1.00, 0.00, -0.00, -1.00, 140.0, 366.0)">t</text><text xml:space="preserve" font-family="Helvetica-Light" font-size="54.0" fill="#000000" transform="matrix(1.00, 0.00, -0.00, -1.00, 155.0, 366.0)">w</text><text xml:space="preserve" font-family="Helvetica-Light" font-size="54.0" fill="#000000" transform="matrix(1.00, 0.00, -0.00, -1.00, 194.0, 366.0)">a</text><text xml:space="preserve" font-family="Helvetica-Light" font-size="54.0" fill="#000000" transform="matrix(1.00, 0.00, -0.00, -1.00, 224.1, 366.0)">r</text><text xml:space="preserve" font-family="Helvetica-Light" font-size="54.0" fill="#000000" transform="matrix(1.00, 0.00, -0.00, -1.00, 241.1, 366.0)">e</text><text xml:space="preserve" font-family="Helvetica-Light" font-size="54.0" fill="#000000" transform="matrix(1.00, 0.00, -0.00, -1.00, 271.1, 366.0)"> </text><text xml:space="preserve" font-family="Helvetica-Light" font-size="54.0" fill="#000000" transform="matrix(1.00, 0.00, -0.00, -1.00, 286.1, 366.0)">A</text><text xml:space="preserve" font-family="Helvetica-Light" font-size="54.0" fill="#000000" transform="matrix(1.00, 0.00, -0.00, -1.00, 322.1, 366.0)">r</text><text xml:space="preserve" font-family="Helvetica-Light" font-size="54.0" fill="#000000" transform="matrix(1.00, 0.00, -0.00, -1.00, 339.1, 366.0)">c</text><text xml:space="preserve" font-family="Helvetica-Light" font-size="54.0" fill="#000000" transform="matrix(1.00, 0.00, -0.00, -1.00, 369.2, 366.0)">h</text><text xml:space="preserve" font-family="Helvetica-Light" font-size="54.0" fill="#000000" transform="matrix(1.00, 0.00, -0.00, -1.00, 399.2, 366.0)">i</text><text xml:space="preserve" font-family="Helvetica-Light" font-size="54.0" fill="#000000" transform="matrix(1.00, 0.00, -0.00, -1.00, 411.2, 366.0)">t</text><text xml:space="preserve" font-family="Helvetica-Light" font-size="54.0" fill="#000000" transform="matrix(1.00, 0.00, -0.00, -1.00, 426.2, 366.0)">e</text><text xml:space="preserve" font-family="Helvetica-Light" font-size="54.0" fill="#000000" transform="matrix(1.00, 0.00, -0.00, -1.00, 456.2, 366.0)">c</text><text xml:space="preserve" font-family="Helvetica-Light" font-size="54.0" fill="#000000" transform="matrix(1.00, 0.00, -0.00, -1.00, 486.2, 366.0)">t</text><g><clipPath id="clip-0"><path d="M 1405.6 437.7 L 1847.2 437.7 L 1847.2 558.6 L 1405.6 558.6 Z M 1405.6 437.7 "></path></clipPath><g clip-path="url(#clip-0)"><image xlink:href="158AB604C5B84CEC9F64F456C10C6D16.png" width="442.00" height="120.00" transform="matrix(1.00, 0.00, -0.00, -1.01, 1406.0, 559.0)"></image></g></g><g><clipPath id="clip-1"><path d="M 1364.5 277.6 L 1835.3 277.6 L 1835.3 467.5 L 1364.5 467.5 Z M 1364.5 277.6 "></path></clipPath><g clip-path="url(#clip-1)"><image xlink:href="FFBA535F2E2185137D2579C91DD01B44.png" width="471.00" height="190.00" transform="matrix(1.00, 0.00, -0.00, -1.00, 1364.0, 468.0)"></image></g></g><g><clipPath id="clip-2"><path d="M 41.6 24.3 L 101.5 24.3 L 101.5 73.0 L 41.6 73.0 Z M 41.6 24.3 "></path></clipPath><g clip-path="url(#clip-2)"><image xlink:href="433D572A4C5F328FFCF94BCF9FBA99DF.png" width="60.00" height="48.00" transform="matrix(1.00, 0.00, -0.00, -1.02, 42.0, 73.0)"></image></g></g><g><clipPath id="clip-3"><path d="M 95.4 3.4 L 433.0 3.4 L 433.0 93.9 L 95.4 93.9 Z M 95.4 3.4 "></path></clipPath><g clip-path="url(#clip-3)"><text xml:space="preserve" font-family="Helvetica-Light" font-size="53.0" fill="#000000" transform="matrix(1.00, 0.00, -0.00, -1.00, 109.0, 29.0)">T</text><text xml:space="preserve" font-family="Helvetica-Light" font-size="53.0" fill="#000000" transform="matrix(1.00, 0.00, -0.00, -1.00, 138.5, 29.0)">i</text><text xml:space="preserve" font-family="Helvetica-Light" font-size="53.0" fill="#000000" transform="matrix(1.00, 0.00, -0.00, -1.00, 150.2, 29.0)">m</text><text xml:space="preserve" font-family="Helvetica-Light" font-size="53.0" fill="#000000" transform="matrix(1.00, 0.00, -0.00, -1.00, 194.4, 29.0)">C</text><text xml:space="preserve" font-family="Helvetica-Light" font-size="53.0" fill="#000000" transform="matrix(1.00, 0.00, -0.00, -1.00, 232.6, 29.0)">D</text><text xml:space="preserve" font-family="Helvetica-Light" font-size="53.0" fill="#000000" transform="matrix(1.00, 0.00, -0.00, -1.00, 270.9, 29.0)">o</text><text xml:space="preserve" font-family="Helvetica-Light" font-size="53.0" fill="#000000" transform="matrix(1.00, 0.00, -0.00, -1.00, 300.4, 29.0)">h</text><text xml:space="preserve" font-family="Helvetica-Light" font-size="53.0" fill="#000000" transform="matrix(1.00, 0.00, -0.00, -1.00, 329.9, 29.0)">e</text><text xml:space="preserve" font-family="Helvetica-Light" font-size="53.0" fill="#000000" transform="matrix(1.00, 0.00, -0.00, -1.00, 359.3, 29.0)">r</text><text xml:space="preserve" font-family="Helvetica-Light" font-size="53.0" fill="#000000" transform="matrix(1.00, 0.00, -0.00, -1.00, 377.9, 29.0)">t</text><text xml:space="preserve" font-family="Helvetica-Light" font-size="53.0" fill="#000000" transform="matrix(1.00, 0.00, -0.00, -1.00, 392.7, 29.0)">y</text></g></g><text xml:space="preserve" font-family="Helvetica-Light" font-size="50.0" fill="#000000" transform="matrix(1.00, 0.00, -0.00, -1.00, 1545.0, 30.0)">t</text><text xml:space="preserve" font-family="Helvetica-Light" font-size="50.0" fill="#000000" transform="matrix(1.00, 0.00, -0.00, -1.00, 1558.9, 30.0)">i</text><text xml:space="preserve" font-family="Helvetica-Light" font-size="50.0" fill="#000000" transform="matrix(1.00, 0.00, -0.00, -1.00, 1570.0, 30.0)">m</text><text xml:space="preserve" font-family="Helvetica-Light" font-size="50.0" fill="#000000" transform="matrix(1.00, 0.00, -0.00, -1.00, 1611.7, 30.0)">d</text><text xml:space="preserve" font-family="Helvetica-Light" font-size="50.0" fill="#000000" transform="matrix(1.00, 0.00, -0.00, -1.00, 1642.2, 30.0)">o</text><text xml:space="preserve" font-family="Helvetica-Light" font-size="50.0" fill="#000000" transform="matrix(1.00, 0.00, -0.00, -1.00, 1670.0, 30.0)">h</text><text xml:space="preserve" font-family="Helvetica-Light" font-size="50.0" fill="#000000" transform="matrix(1.00, 0.00, -0.00, -1.00, 1697.8, 30.0)">e</text><text xml:space="preserve" font-family="Helvetica-Light" font-size="50.0" fill="#000000" transform="matrix(1.00, 0.00, -0.00, -1.00, 1725.6, 30.0)">r</text><text xml:space="preserve" font-family="Helvetica-Light" font-size="50.0" fill="#000000" transform="matrix(1.00, 0.00, -0.00, -1.00, 1743.2, 30.0)">t</text><text xml:space="preserve" font-family="Helvetica-Light" font-size="50.0" fill="#000000" transform="matrix(1.00, 0.00, -0.00, -1.00, 1757.0, 30.0)">y</text><text xml:space="preserve" font-family="Helvetica-Light" font-size="50.0" fill="#000000" transform="matrix(1.00, 0.00, -0.00, -1.00, 1777.5, 30.0)">.</text><text xml:space="preserve" font-family="Helvetica-Light" font-size="50.0" fill="#000000" transform="matrix(1.00, 0.00, -0.00, -1.00, 1791.4, 30.0)">n</text><text xml:space="preserve" font-family="Helvetica-Light" font-size="50.0" fill="#000000" transform="matrix(1.00, 0.00, -0.00, -1.00, 1819.2, 30.0)">e</text><text xml:space="preserve" font-family="Helvetica-Light" font-size="50.0" fill="#000000" transform="matrix(1.00, 0.00, -0.00, -1.00, 1847.0, 30.0)">t</text><g><clipPath id="clip-4"><path d="M 1544.2 24.2 L 1861.0 24.2 L 1861.0 28.7 L 1544.2 28.7 Z M 1544.2 24.2 "></path></clipPath><g clip-path="url(#clip-4)"><path d="M 4.5 56.3 L 320.4 56.3 " fill="none" stroke="#000000" stroke-width="2.50" stroke-miterlimit="0.00" transform="matrix(1.00, 0.00, 0.00, -1.00, 1540.7, 82.7)"></path></g></g><g><clipPath id="clip-5"><path d="M 823.4 6.2 L 1153.2 6.2 L 1153.2 91.2 L 823.4 91.2 Z M 823.4 6.2 "></path></clipPath><g clip-path="url(#clip-5)"><text xml:space="preserve" font-family="Helvetica-Light" font-size="50.0" fill="#000000" transform="matrix(1.00, 0.00, -0.00, -1.00, 836.0, 30.0)">/</text><text xml:space="preserve" font-family="Helvetica-Light" font-size="50.0" fill="#000000" transform="matrix(1.00, 0.00, -0.00, -1.00, 849.9, 30.0)">i</text><text xml:space="preserve" font-family="Helvetica-Light" font-size="50.0" fill="#000000" transform="matrix(1.00, 0.00, -0.00, -1.00, 861.0, 30.0)">n</text><text xml:space="preserve" font-family="Helvetica-Light" font-size="50.0" fill="#000000" transform="matrix(1.00, 0.00, -0.00, -1.00, 888.8, 30.0)">/</text><text xml:space="preserve" font-family="Helvetica-Light" font-size="50.0" fill="#000000" transform="matrix(1.00, 0.00, -0.00, -1.00, 902.7, 30.0)">t</text><text xml:space="preserve" font-family="Helvetica-Light" font-size="50.0" fill="#000000" transform="matrix(1.00, 0.00, -0.00, -1.00, 916.6, 30.0)">i</text><text xml:space="preserve" font-family="Helvetica-Light" font-size="50.0" fill="#000000" transform="matrix(1.00, 0.00, -0.00, -1.00, 927.7, 30.0)">m</text><text xml:space="preserve" font-family="Helvetica-Light" font-size="50.0" fill="#000000" transform="matrix(1.00, 0.00, -0.00, -1.00, 969.4, 30.0)">d</text><text xml:space="preserve" font-family="Helvetica-Light" font-size="50.0" fill="#000000" transform="matrix(1.00, 0.00, -0.00, -1.00, 999.9, 30.0)">o</text><text xml:space="preserve" font-family="Helvetica-Light" font-size="50.0" fill="#000000" transform="matrix(1.00, 0.00, -0.00, -1.00, 1027.7, 30.0)">h</text><text xml:space="preserve" font-family="Helvetica-Light" font-size="50.0" fill="#000000" transform="matrix(1.00, 0.00, -0.00, -1.00, 1055.5, 30.0)">e</text><text xml:space="preserve" font-family="Helvetica-Light" font-size="50.0" fill="#000000" transform="matrix(1.00, 0.00, -0.00, -1.00, 1083.3, 30.0)">r</text><text xml:space="preserve" font-family="Helvetica-Light" font-size="50.0" fill="#000000" transform="matrix(1.00, 0.00, -0.00, -1.00, 1100.8, 30.0)">t</text><text xml:space="preserve" font-family="Helvetica-Light" font-size="50.0" fill="#000000" transform="matrix(1.00, 0.00, -0.00, -1.00, 1114.8, 30.0)">y</text><path d="M 4.5 56.3 L 308.2 56.3 " fill="none" stroke="#000000" stroke-width="2.50" stroke-miterlimit="0.00" transform="matrix(1.00, 0.00, 0.00, -1.00, 831.9, 82.7)"></path></g></g><g><clipPath id="clip-6"><path d="M 775.3 23.7 L 825.2 23.7 L 825.2 73.6 L 775.3 73.6 Z M 775.3 23.7 "></path></clipPath><g clip-path="url(#clip-6)"><image xlink:href="D2FD0DBC4BD1456E386E6CB71DF206E2.png" width="50.00" height="50.00" transform="matrix(1.00, 0.00, -0.00, -1.00, 775.0, 74.0)"></image></g></g></g></svg>